<svg width="75" height="18" viewBox="0 0 75 18" fill="none" xmlns="http://www.w3.org/2000/svg">
<path d="M0.519531 17V0.898438H4.86719V17H0.519531ZM25.1289 17L14.2656 5.9375V17H9.91797V0.898438H14.6406L25.5156 12.0078V0.898438H29.8398V17H25.1289ZM39.2266 4.33203V7.13281H49.6914V10.5664H39.2266V17H34.8789V0.898438H50.2656V4.33203H39.2266ZM74.8164 8.96094C74.8164 10.3438 74.5625 11.5664 74.0547 12.6289C73.5469 13.6836 72.8203 14.5664 71.875 15.2773C70.9297 15.9883 69.7812 16.5273 68.4297 16.8945C67.0859 17.2539 65.5742 17.4336 63.8945 17.4336C62.2148 17.4336 60.6953 17.2539 59.3359 16.8945C57.9844 16.5273 56.832 15.9883 55.8789 15.2773C54.9258 14.5664 54.1914 13.6836 53.6758 12.6289C53.1602 11.5664 52.9023 10.3438 52.9023 8.96094C52.9023 7.57812 53.1602 6.35938 53.6758 5.30469C54.1914 4.24219 54.9258 3.35547 55.8789 2.64453C56.832 1.93359 57.9844 1.39844 59.3359 1.03906C60.6953 0.671875 62.2148 0.488281 63.8945 0.488281C65.5742 0.488281 67.0859 0.671875 68.4297 1.03906C69.7812 1.39844 70.9297 1.93359 71.875 2.64453C72.8203 3.35547 73.5469 4.24219 74.0547 5.30469C74.5625 6.35938 74.8164 7.57812 74.8164 8.96094ZM70.4219 8.96094C70.4219 8.35938 70.3242 7.76172 70.1289 7.16797C69.9414 6.56641 69.6016 6.02734 69.1094 5.55078C68.625 5.07422 67.9609 4.6875 67.1172 4.39062C66.2734 4.09375 65.1992 3.94531 63.8945 3.94531C63.0195 3.94531 62.25 4.01562 61.5859 4.15625C60.9219 4.28906 60.3477 4.47656 59.8633 4.71875C59.3789 4.96094 58.9727 5.24609 58.6445 5.57422C58.3164 5.89453 58.0547 6.24219 57.8594 6.61719C57.6641 6.98438 57.5234 7.37109 57.4375 7.77734C57.3594 8.17578 57.3203 8.57031 57.3203 8.96094C57.3203 9.35938 57.3594 9.76172 57.4375 10.168C57.5234 10.5742 57.6641 10.9648 57.8594 11.3398C58.0547 11.707 58.3164 12.0508 58.6445 12.3711C58.9727 12.6914 59.3789 12.9727 59.8633 13.2148C60.3477 13.4492 60.9219 13.6367 61.5859 13.7773C62.25 13.9102 63.0195 13.9766 63.8945 13.9766C65.1992 13.9766 66.2734 13.8281 67.1172 13.5312C67.9609 13.2344 68.625 12.8477 69.1094 12.3711C69.6016 11.8945 69.9414 11.3594 70.1289 10.7656C70.3242 10.1641 70.4219 9.5625 70.4219 8.96094Z" fill="black"/>
</svg>
