<svg width="192" height="18" viewBox="0 0 192 18" fill="none" xmlns="http://www.w3.org/2000/svg">
<path d="M4.86719 17H0.519531V0.898438H11.418C12.5898 0.898438 13.582 1.01953 14.3945 1.26172C15.2148 1.50391 15.8789 1.84766 16.3867 2.29297C16.9023 2.73828 17.2734 3.27734 17.5 3.91016C17.7344 4.53516 17.8516 5.23438 17.8516 6.00781C17.8516 6.6875 17.7539 7.28125 17.5586 7.78906C17.3711 8.29688 17.1133 8.73438 16.7852 9.10156C16.4648 9.46094 16.0898 9.76562 15.6602 10.0156C15.2305 10.2656 14.7773 10.4727 14.3008 10.6367L19.5742 17H14.4883L9.61328 11.0703H4.86719V17ZM13.457 5.98438C13.457 5.67188 13.4141 5.40625 13.3281 5.1875C13.25 4.96875 13.1094 4.79297 12.9062 4.66016C12.7031 4.51953 12.4297 4.41797 12.0859 4.35547C11.75 4.29297 11.3281 4.26172 10.8203 4.26172H4.86719V7.70703H10.8203C11.3281 7.70703 11.75 7.67578 12.0859 7.61328C12.4297 7.55078 12.7031 7.45312 12.9062 7.32031C13.1094 7.17969 13.25 7 13.3281 6.78125C13.4141 6.5625 13.457 6.29688 13.457 5.98438ZM43.4102 8.96094C43.4102 10.3438 43.1562 11.5664 42.6484 12.6289C42.1406 13.6836 41.4141 14.5664 40.4688 15.2773C39.5234 15.9883 38.375 16.5273 37.0234 16.8945C35.6797 17.2539 34.168 17.4336 32.4883 17.4336C30.8086 17.4336 29.2891 17.2539 27.9297 16.8945C26.5781 16.5273 25.4258 15.9883 24.4727 15.2773C23.5195 14.5664 22.7852 13.6836 22.2695 12.6289C21.7539 11.5664 21.4961 10.3438 21.4961 8.96094C21.4961 7.57812 21.7539 6.35938 22.2695 5.30469C22.7852 4.24219 23.5195 3.35547 24.4727 2.64453C25.4258 1.93359 26.5781 1.39844 27.9297 1.03906C29.2891 0.671875 30.8086 0.488281 32.4883 0.488281C34.168 0.488281 35.6797 0.671875 37.0234 1.03906C38.375 1.39844 39.5234 1.93359 40.4688 2.64453C41.4141 3.35547 42.1406 4.24219 42.6484 5.30469C43.1562 6.35938 43.4102 7.57812 43.4102 8.96094ZM39.0156 8.96094C39.0156 8.35938 38.918 7.76172 38.7227 7.16797C38.5352 6.56641 38.1953 6.02734 37.7031 5.55078C37.2188 5.07422 36.5547 4.6875 35.7109 4.39062C34.8672 4.09375 33.793 3.94531 32.4883 3.94531C31.6133 3.94531 30.8438 4.01562 30.1797 4.15625C29.5156 4.28906 28.9414 4.47656 28.457 4.71875C27.9727 4.96094 27.5664 5.24609 27.2383 5.57422C26.9102 5.89453 26.6484 6.24219 26.4531 6.61719C26.2578 6.98438 26.1172 7.37109 26.0312 7.77734C25.9531 8.17578 25.9141 8.57031 25.9141 8.96094C25.9141 9.35938 25.9531 9.76172 26.0312 10.168C26.1172 10.5742 26.2578 10.9648 26.4531 11.3398C26.6484 11.707 26.9102 12.0508 27.2383 12.3711C27.5664 12.6914 27.9727 12.9727 28.457 13.2148C28.9414 13.4492 29.5156 13.6367 30.1797 13.7773C30.8438 13.9102 31.6133 13.9766 32.4883 13.9766C33.793 13.9766 34.8672 13.8281 35.7109 13.5312C36.5547 13.2344 37.2188 12.8477 37.7031 12.3711C38.1953 11.8945 38.5352 11.3594 38.7227 10.7656C38.918 10.1641 39.0156 9.5625 39.0156 8.96094ZM46.4336 17V13.6367L57.0156 4.42578H46.75V0.898438H63.2617V3.85156L52.1992 13.4727H63.4961V17H46.4336ZM77.8281 0.488281C79.4062 0.488281 80.8711 0.625 82.2227 0.898438C83.582 1.16406 84.8281 1.50781 85.9609 1.92969V5.86719C85.5156 5.61719 85.0117 5.375 84.4492 5.14062C83.8945 4.90625 83.2891 4.69922 82.6328 4.51953C81.9766 4.33984 81.2734 4.19531 80.5234 4.08594C79.7734 3.97656 78.9844 3.92188 78.1562 3.92188C77.125 3.92188 76.2266 3.99609 75.4609 4.14453C74.6953 4.29297 74.0391 4.49219 73.4922 4.74219C72.9453 4.99219 72.4961 5.28516 72.1445 5.62109C71.793 5.94922 71.5156 6.30078 71.3125 6.67578C71.1094 7.05078 70.9688 7.43359 70.8906 7.82422C70.8125 8.21484 70.7734 8.59375 70.7734 8.96094C70.7734 9.28125 70.8047 9.62891 70.8672 10.0039C70.9375 10.3789 71.0625 10.7539 71.2422 11.1289C71.4297 11.5039 71.6875 11.8633 72.0156 12.207C72.3438 12.5508 72.7695 12.8555 73.293 13.1211C73.8242 13.3867 74.4609 13.6016 75.2031 13.7656C75.9453 13.9219 76.8281 14 77.8516 14C78.3672 14 78.8164 13.9844 79.1992 13.9531C79.582 13.9219 79.9297 13.8789 80.2422 13.8242C80.5625 13.7695 80.8594 13.7031 81.1328 13.625C81.4141 13.5469 81.7031 13.4648 82 13.3789V11.4336H77.125V7.90625H86.3477V16.1328C85.7695 16.3281 85.1211 16.5078 84.4023 16.6719C83.6914 16.8281 82.9531 16.9609 82.1875 17.0703C81.4297 17.1875 80.668 17.2773 79.9023 17.3398C79.1367 17.4023 78.4141 17.4336 77.7344 17.4336C76.6797 17.4336 75.668 17.3633 74.6992 17.2227C73.7305 17.082 72.8242 16.8672 71.9805 16.5781C71.1445 16.2812 70.3789 15.9062 69.6836 15.4531C68.9961 15 68.4062 14.4609 67.9141 13.8359C67.4297 13.2109 67.0508 12.4961 66.7773 11.6914C66.5117 10.8789 66.3789 9.96875 66.3789 8.96094C66.3789 7.96094 66.5195 7.05469 66.8008 6.24219C67.082 5.42969 67.4727 4.71094 67.9727 4.08594C68.4805 3.46094 69.0859 2.92188 69.7891 2.46875C70.5 2.01562 71.2773 1.64453 72.1211 1.35547C72.9727 1.05859 73.8789 0.839844 74.8398 0.699219C75.8086 0.558594 76.8047 0.488281 77.8281 0.488281ZM95.3828 17H91.0352V0.898438H101.934C103.105 0.898438 104.098 1.01953 104.91 1.26172C105.73 1.50391 106.395 1.84766 106.902 2.29297C107.418 2.73828 107.789 3.27734 108.016 3.91016C108.25 4.53516 108.367 5.23438 108.367 6.00781C108.367 6.6875 108.27 7.28125 108.074 7.78906C107.887 8.29688 107.629 8.73438 107.301 9.10156C106.98 9.46094 106.605 9.76562 106.176 10.0156C105.746 10.2656 105.293 10.4727 104.816 10.6367L110.09 17H105.004L100.129 11.0703H95.3828V17ZM103.973 5.98438C103.973 5.67188 103.93 5.40625 103.844 5.1875C103.766 4.96875 103.625 4.79297 103.422 4.66016C103.219 4.51953 102.945 4.41797 102.602 4.35547C102.266 4.29297 101.844 4.26172 101.336 4.26172H95.3828V7.70703H101.336C101.844 7.70703 102.266 7.67578 102.602 7.61328C102.945 7.55078 103.219 7.45312 103.422 7.32031C103.625 7.17969 103.766 7 103.844 6.78125C103.93 6.5625 103.973 6.29688 103.973 5.98438ZM122.371 10.4258V17H118.035V10.4258L110.23 0.898438H115.105L120.215 7.37891L125.301 0.898438H130.176L122.371 10.4258ZM148.82 0.898438L152.934 12.0781L157.387 0.898438H161.898L155.43 17H150.602L146.395 6.17188L142.199 17H137.371L130.891 0.898438H135.414L139.773 11.8438L143.98 0.898438H148.82ZM169.047 7.03906L177.953 0.898438H183.777L172.938 8.62109L184.504 17H178.164L169.047 10.3086V17H164.676V0.898438H169.047V7.03906ZM187.035 17V0.898438H191.383V17H187.035Z" fill="black"/>
</svg>
