<svg width="302" height="24" viewBox="0 0 302 24" fill="#000" xmlns="http://www.w3.org/2000/svg">
<path d="M6.86719 20H2.51953V3.89844H13.418C14.5898 3.89844 15.582 4.01953 16.3945 4.26172C17.2148 4.50391 17.8789 4.84766 18.3867 5.29297C18.9023 5.73828 19.2734 6.27734 19.5 6.91016C19.7344 7.53516 19.8516 8.23438 19.8516 9.00781C19.8516 9.6875 19.7539 10.2812 19.5586 10.7891C19.3711 11.2969 19.1133 11.7344 18.7852 12.1016C18.4648 12.4609 18.0898 12.7656 17.6602 13.0156C17.2305 13.2656 16.7773 13.4727 16.3008 13.6367L21.5742 20H16.4883L11.6133 14.0703H6.86719V20ZM15.457 8.98438C15.457 8.67188 15.4141 8.40625 15.3281 8.1875C15.25 7.96875 15.1094 7.79297 14.9062 7.66016C14.7031 7.51953 14.4297 7.41797 14.0859 7.35547C13.75 7.29297 13.3281 7.26172 12.8203 7.26172H6.86719V10.707H12.8203C13.3281 10.707 13.75 10.6758 14.0859 10.6133C14.4297 10.5508 14.7031 10.4531 14.9062 10.3203C15.1094 10.1797 15.25 10 15.3281 9.78125C15.4141 9.5625 15.457 9.29688 15.457 8.98438ZM45.4102 11.9609C45.4102 13.3438 45.1562 14.5664 44.6484 15.6289C44.1406 16.6836 43.4141 17.5664 42.4688 18.2773C41.5234 18.9883 40.375 19.5273 39.0234 19.8945C37.6797 20.2539 36.168 20.4336 34.4883 20.4336C32.8086 20.4336 31.2891 20.2539 29.9297 19.8945C28.5781 19.5273 27.4258 18.9883 26.4727 18.2773C25.5195 17.5664 24.7852 16.6836 24.2695 15.6289C23.7539 14.5664 23.4961 13.3438 23.4961 11.9609C23.4961 10.5781 23.7539 9.35938 24.2695 8.30469C24.7852 7.24219 25.5195 6.35547 26.4727 5.64453C27.4258 4.93359 28.5781 4.39844 29.9297 4.03906C31.2891 3.67188 32.8086 3.48828 34.4883 3.48828C36.168 3.48828 37.6797 3.67188 39.0234 4.03906C40.375 4.39844 41.5234 4.93359 42.4688 5.64453C43.4141 6.35547 44.1406 7.24219 44.6484 8.30469C45.1562 9.35938 45.4102 10.5781 45.4102 11.9609ZM41.0156 11.9609C41.0156 11.3594 40.918 10.7617 40.7227 10.168C40.5352 9.56641 40.1953 9.02734 39.7031 8.55078C39.2188 8.07422 38.5547 7.6875 37.7109 7.39062C36.8672 7.09375 35.793 6.94531 34.4883 6.94531C33.6133 6.94531 32.8438 7.01562 32.1797 7.15625C31.5156 7.28906 30.9414 7.47656 30.457 7.71875C29.9727 7.96094 29.5664 8.24609 29.2383 8.57422C28.9102 8.89453 28.6484 9.24219 28.4531 9.61719C28.2578 9.98438 28.1172 10.3711 28.0312 10.7773C27.9531 11.1758 27.9141 11.5703 27.9141 11.9609C27.9141 12.3594 27.9531 12.7617 28.0312 13.168C28.1172 13.5742 28.2578 13.9648 28.4531 14.3398C28.6484 14.707 28.9102 15.0508 29.2383 15.3711C29.5664 15.6914 29.9727 15.9727 30.457 16.2148C30.9414 16.4492 31.5156 16.6367 32.1797 16.7773C32.8438 16.9102 33.6133 16.9766 34.4883 16.9766C35.793 16.9766 36.8672 16.8281 37.7109 16.5312C38.5547 16.2344 39.2188 15.8477 39.7031 15.3711C40.1953 14.8945 40.5352 14.3594 40.7227 13.7656C40.918 13.1641 41.0156 12.5625 41.0156 11.9609ZM48.4336 20V16.6367L59.0156 7.42578H48.75V3.89844H65.2617V6.85156L54.1992 16.4727H65.4961V20H48.4336ZM79.8281 3.48828C81.4062 3.48828 82.8711 3.625 84.2227 3.89844C85.582 4.16406 86.8281 4.50781 87.9609 4.92969V8.86719C87.5156 8.61719 87.0117 8.375 86.4492 8.14062C85.8945 7.90625 85.2891 7.69922 84.6328 7.51953C83.9766 7.33984 83.2734 7.19531 82.5234 7.08594C81.7734 6.97656 80.9844 6.92188 80.1562 6.92188C79.125 6.92188 78.2266 6.99609 77.4609 7.14453C76.6953 7.29297 76.0391 7.49219 75.4922 7.74219C74.9453 7.99219 74.4961 8.28516 74.1445 8.62109C73.793 8.94922 73.5156 9.30078 73.3125 9.67578C73.1094 10.0508 72.9688 10.4336 72.8906 10.8242C72.8125 11.2148 72.7734 11.5938 72.7734 11.9609C72.7734 12.2812 72.8047 12.6289 72.8672 13.0039C72.9375 13.3789 73.0625 13.7539 73.2422 14.1289C73.4297 14.5039 73.6875 14.8633 74.0156 15.207C74.3438 15.5508 74.7695 15.8555 75.293 16.1211C75.8242 16.3867 76.4609 16.6016 77.2031 16.7656C77.9453 16.9219 78.8281 17 79.8516 17C80.3672 17 80.8164 16.9844 81.1992 16.9531C81.582 16.9219 81.9297 16.8789 82.2422 16.8242C82.5625 16.7695 82.8594 16.7031 83.1328 16.625C83.4141 16.5469 83.7031 16.4648 84 16.3789V14.4336H79.125V10.9062H88.3477V19.1328C87.7695 19.3281 87.1211 19.5078 86.4023 19.6719C85.6914 19.8281 84.9531 19.9609 84.1875 20.0703C83.4297 20.1875 82.668 20.2773 81.9023 20.3398C81.1367 20.4023 80.4141 20.4336 79.7344 20.4336C78.6797 20.4336 77.668 20.3633 76.6992 20.2227C75.7305 20.082 74.8242 19.8672 73.9805 19.5781C73.1445 19.2812 72.3789 18.9062 71.6836 18.4531C70.9961 18 70.4062 17.4609 69.9141 16.8359C69.4297 16.2109 69.0508 15.4961 68.7773 14.6914C68.5117 13.8789 68.3789 12.9688 68.3789 11.9609C68.3789 10.9609 68.5195 10.0547 68.8008 9.24219C69.082 8.42969 69.4727 7.71094 69.9727 7.08594C70.4805 6.46094 71.0859 5.92188 71.7891 5.46875C72.5 5.01562 73.2773 4.64453 74.1211 4.35547C74.9727 4.05859 75.8789 3.83984 76.8398 3.69922C77.8086 3.55859 78.8047 3.48828 79.8281 3.48828ZM97.3828 20H93.0352V3.89844H103.934C105.105 3.89844 106.098 4.01953 106.91 4.26172C107.73 4.50391 108.395 4.84766 108.902 5.29297C109.418 5.73828 109.789 6.27734 110.016 6.91016C110.25 7.53516 110.367 8.23438 110.367 9.00781C110.367 9.6875 110.27 10.2812 110.074 10.7891C109.887 11.2969 109.629 11.7344 109.301 12.1016C108.98 12.4609 108.605 12.7656 108.176 13.0156C107.746 13.2656 107.293 13.4727 106.816 13.6367L112.09 20H107.004L102.129 14.0703H97.3828V20ZM105.973 8.98438C105.973 8.67188 105.93 8.40625 105.844 8.1875C105.766 7.96875 105.625 7.79297 105.422 7.66016C105.219 7.51953 104.945 7.41797 104.602 7.35547C104.266 7.29297 103.844 7.26172 103.336 7.26172H97.3828V10.707H103.336C103.844 10.707 104.266 10.6758 104.602 10.6133C104.945 10.5508 105.219 10.4531 105.422 10.3203C105.625 10.1797 105.766 10 105.844 9.78125C105.93 9.5625 105.973 9.29688 105.973 8.98438ZM124.371 13.4258V20H120.035V13.4258L112.23 3.89844H117.105L122.215 10.3789L127.301 3.89844H132.176L124.371 13.4258ZM150.82 3.89844L154.934 15.0781L159.387 3.89844H163.898L157.43 20H152.602L148.395 9.17188L144.199 20H139.371L132.891 3.89844H137.414L141.773 14.8438L145.98 3.89844H150.82ZM171.047 10.0391L179.953 3.89844H185.777L174.938 11.6211L186.504 20H180.164L171.047 13.3086V20H166.676V3.89844H171.047V10.0391ZM189.035 20V3.89844H193.383V20H189.035ZM225.504 20V3.89844H229.852V20H225.504ZM250.113 20L239.25 8.9375V20H234.902V3.89844H239.625L250.5 15.0078V3.89844H254.824V20H250.113ZM264.211 7.33203V10.1328H274.676V13.5664H264.211V20H259.863V3.89844H275.25V7.33203H264.211ZM299.801 11.9609C299.801 13.3438 299.547 14.5664 299.039 15.6289C298.531 16.6836 297.805 17.5664 296.859 18.2773C295.914 18.9883 294.766 19.5273 293.414 19.8945C292.07 20.2539 290.559 20.4336 288.879 20.4336C287.199 20.4336 285.68 20.2539 284.32 19.8945C282.969 19.5273 281.816 18.9883 280.863 18.2773C279.91 17.5664 279.176 16.6836 278.66 15.6289C278.145 14.5664 277.887 13.3438 277.887 11.9609C277.887 10.5781 278.145 9.35938 278.66 8.30469C279.176 7.24219 279.91 6.35547 280.863 5.64453C281.816 4.93359 282.969 4.39844 284.32 4.03906C285.68 3.67188 287.199 3.48828 288.879 3.48828C290.559 3.48828 292.07 3.67188 293.414 4.03906C294.766 4.39844 295.914 4.93359 296.859 5.64453C297.805 6.35547 298.531 7.24219 299.039 8.30469C299.547 9.35938 299.801 10.5781 299.801 11.9609ZM295.406 11.9609C295.406 11.3594 295.309 10.7617 295.113 10.168C294.926 9.56641 294.586 9.02734 294.094 8.55078C293.609 8.07422 292.945 7.6875 292.102 7.39062C291.258 7.09375 290.184 6.94531 288.879 6.94531C288.004 6.94531 287.234 7.01562 286.57 7.15625C285.906 7.28906 285.332 7.47656 284.848 7.71875C284.363 7.96094 283.957 8.24609 283.629 8.57422C283.301 8.89453 283.039 9.24219 282.844 9.61719C282.648 9.98438 282.508 10.3711 282.422 10.7773C282.344 11.1758 282.305 11.5703 282.305 11.9609C282.305 12.3594 282.344 12.7617 282.422 13.168C282.508 13.5742 282.648 13.9648 282.844 14.3398C283.039 14.707 283.301 15.0508 283.629 15.3711C283.957 15.6914 284.363 15.9727 284.848 16.2148C285.332 16.4492 285.906 16.6367 286.57 16.7773C287.234 16.9102 288.004 16.9766 288.879 16.9766C290.184 16.9766 291.258 16.8281 292.102 16.5312C292.945 16.2344 293.609 15.8477 294.094 15.3711C294.586 14.8945 294.926 14.3594 295.113 13.7656C295.309 13.1641 295.406 12.5625 295.406 11.9609Z"/>
<path d="M203.113 4.00998C200.618 5.83998 198.99 8.72998 198.99 12C198.99 13.46 199.32 14.85 199.907 16.11L203.113 14.31V4.00998Z"/>
<path d="M208.266 11.42V2.04999C207.174 2.15999 206.133 2.42999 205.174 2.83999V13.16L208.266 11.42Z"/>
<path d="M209.297 13.15L200.938 17.83C201.567 18.67 202.319 19.42 203.185 20.03L212.389 14.89L209.297 13.15Z"/>
<path d="M210.328 7.95999V11.42L218.687 16.1C219.12 15.17 219.408 14.17 219.532 13.12L210.328 7.95999Z"/>
<path d="M205.246 21.2C206.493 21.71 207.854 22 209.297 22C212.74 22 215.78 20.35 217.656 17.84L214.451 16.04L205.246 21.2Z"/>
<path d="M219.522 10.81C218.955 6.17999 215.131 2.50999 210.328 2.04999V5.64999L219.522 10.81Z"/>
</svg>
